<svg viewBox="0 0 1065 1024">
  <path d="M1061.515539 435.977293c-4.053122-23.732097-26.665278-47.9975-49.650747-53.330556l-17.225769-4.053122a173.164314 173.164314 0 0 1-99.834801-81.222436 181.003906 181.003906 0 0 1-18.345711-130.286548l5.333056-16.745794a74.662778 74.662778 0 0 0-20.212281-71.196292s-15.999167-14.025936-62.023436-41.27785S733.692614 3.359825 733.692614 3.359825c-22.345503-8.372897-53.650539 0-70.129681 17.545753l-12.106036 13.172647a169.431175 169.431175 0 0 1-118.447165 48.317484 170.124473 170.124473 0 0 1-118.607155-48.637467l-11.892714-12.905995A70.183011 70.183011 0 0 0 332.380182 3.306494s-19.945628 7.519608-65.809906 34.50487-62.34342 41.544503-62.343419 41.544503a73.91615 73.91615 0 0 0-20.212281 70.929639l5.333055 17.012447a181.697203 181.697203 0 0 1-18.345711 130.019895 172.684339 172.684339 0 0 1-100.581428 81.489089l-16.692464 3.78647a71.836259 71.836259 0 0 0-49.650747 53.330555S0.290812 457.256185 0.290812 511.973335s3.786469 76.102703 3.786469 76.102703c4.053122 23.99875 26.665278 47.9975 49.650747 53.330555l15.999167 3.78647a171.884381 171.884381 0 0 1 100.634759 81.755742 182.017187 182.017187 0 0 1 18.345711 130.286547l-4.853081 16.425811a74.182803 74.182803 0 0 0 20.212281 70.98297s15.999167 14.025936 62.076767 41.27785 65.809906 34.50487 65.809905 34.50487c22.398833 8.372897 53.650539 0.266653 70.129681-17.545753l11.46607-12.586011a169.271184 169.271184 0 0 1 237.960939 0.319983l11.306078 12.639342a70.236342 70.236342 0 0 0 70.129681 17.545753s19.998958-7.572939 66.076558-34.50487 62.076767-41.27785 62.076767-41.27785a74.182803 74.182803 0 0 0 20.212281-70.98297l-5.333056-17.225769a181.323889 181.323889 0 0 1 18.399042-129.753242A174.817562 174.817562 0 0 1 995.012336 645.299724l16.425812-3.786469a71.836259 71.836259 0 0 0 49.650747-53.330556s3.786469-21.332222 3.786469-76.102703-3.519817-76.049372-3.519816-76.049373zM533.063063 730.255299c-117.327223 0-212.308942-97.648247-212.308942-218.655278a219.295245 219.295245 0 0 1 62.076767-153.858653 209.535753 209.535753 0 0 1 150.498828-63.996667c117.327223 0 212.308942 97.648247 212.308942 218.655278s-95.515025 217.85532-212.575595 217.85532z" />
</svg>
